<svg version="1.1" id="Layer_1" xmlns="http://www.w3.org/2000/svg" x="0px"
     y="0px"
     width="100%" viewBox="0 0 570 472" enable-background="new 0 0 570 472" xml:space="preserve">
<path fill="#ffffff" opacity="1.000000" stroke="none"
      d="
M219.000000,395.000427 
	C186.179047,395.000397 153.850769,394.601349 121.540657,395.193451 
	C108.297852,395.436096 98.714470,385.250824 100.165176,371.396210 
	C102.224854,351.725708 106.942482,333.138275 117.754356,316.370636 
	C135.333984,289.107117 160.359268,273.018524 192.050217,267.115875 
	C198.079910,265.992828 204.267380,265.135162 210.380478,265.144836 
	C233.691574,265.181702 257.026581,265.067993 280.304565,266.097595 
	C297.547791,266.860260 313.361938,273.219635 327.866821,282.570435 
	C328.892822,283.231842 329.887787,284.838623 329.907471,286.022247 
	C330.070190,295.831055 329.999634,305.643738 329.999634,315.819427 
	C317.402008,317.904816 306.382751,322.914062 296.658539,330.899261 
	C278.050873,346.179382 274.938477,372.995880 289.721832,392.081879 
	C290.222198,392.727875 290.655548,393.425812 291.741364,395.000427 
	C267.193756,395.000427 243.346878,395.000427 219.000000,395.000427 
z"/>
    <path fill="#ffffff" opacity="1.000000" stroke="none"
          d="
M362.899414,214.798065 
	C401.295380,202.019836 439.418610,189.642303 477.275818,176.498734 
	C488.261566,172.684616 500.378113,179.558136 500.202820,192.921753 
	C499.654266,234.742722 500.001282,276.575439 500.001282,318.403595 
	C500.001282,336.319366 493.923340,345.684113 477.206268,351.752930 
	C461.914734,357.304260 446.942627,355.879517 433.200928,346.933014 
	C415.889740,335.662567 416.144958,314.142639 433.471039,302.838562 
	C443.540710,296.268799 455.081055,294.034149 469.676849,295.931915 
	C469.676849,277.694489 469.676849,259.495422 469.676849,240.885361 
	C454.089294,246.040436 438.640778,251.133530 423.203339,256.259918 
	C410.309845,260.541504 397.473358,265.002136 384.515106,269.076599 
	C380.825348,270.236725 379.874451,272.001740 379.900360,275.770264 
	C380.088257,303.098907 379.372040,330.448792 380.209778,357.753021 
	C380.827759,377.895020 369.296844,389.303497 351.602600,393.367004 
	C336.792999,396.768005 322.927490,394.643524 310.983093,385.152802 
	C295.810791,373.097321 296.805389,353.968842 312.954285,343.222351 
	C323.452301,336.236328 335.141998,333.639740 347.725464,335.844208 
	C348.340393,335.951935 348.990631,335.858032 349.998688,335.858032 
	C349.998688,333.925995 349.998688,332.117004 349.998688,330.308014 
	C349.998688,297.812042 349.987762,265.316071 350.005035,232.820084 
	C350.010529,222.503769 352.799500,218.564728 362.899414,214.798065 
z"/>
    <path fill="#ffffff" opacity="1.000000" stroke="none"
          d="
M161.315216,141.477570 
	C167.746475,110.277756 185.619873,89.273888 215.312744,79.069984 
	C247.858261,67.885788 284.575439,79.897186 304.459747,108.060562 
	C323.903717,135.600220 325.797852,165.301422 309.507294,194.244339 
	C282.507812,242.213409 222.923065,245.683075 189.079636,216.489502 
	C166.265533,196.809937 157.030624,171.792114 161.315216,141.477570 
z"/>
</svg>