<svg version="1.1" id="Layer_1" xmlns="http://www.w3.org/2000/svg" x="0px"
     y="0px"
     width="100%" viewBox="0 0 492 438" enable-background="new 0 0 492 438" xml:space="preserve">
<path fill="#ffffff" opacity="1.000000" stroke="none"
      d="
M373.979370,65.930679
	C382.016449,63.473774 389.199371,64.141762 395.458344,69.454422 
	C399.882446,73.209602 401.968811,78.160431 401.962006,83.994614 
	C401.947235,96.656029 402.007050,109.317635 401.959106,121.978874 
	C401.919525,132.427094 396.925476,139.590775 386.911621,143.102386 
	C373.588989,147.774292 360.247772,152.419113 346.764740,156.591461 
	C342.865082,157.798233 342.000000,159.606552 342.006134,163.285400 
	C342.097321,217.929474 341.784729,272.575958 342.203217,327.216980 
	C342.384125,350.841858 331.127380,366.654266 310.570190,375.738647 
	C281.917786,388.400482 253.183487,387.541016 225.825043,371.595734 
	C212.079849,363.584656 202.970932,351.532227 202.306915,335.018188 
	C201.815338,322.792725 206.889526,312.311920 215.938522,304.082123 
	C233.821808,287.817749 255.383713,282.784424 278.841614,284.555969 
	C286.401672,285.126892 293.871643,286.890228 302.126801,288.228699 
	C302.126801,285.802399 302.126801,283.692657 302.126801,281.582916 
	C302.126251,223.773315 302.128540,165.963715 302.123077,108.154121 
	C302.121735,94.213493 306.548676,88.213074 319.655823,83.922531 
	C337.656799,78.030014 355.609039,71.988541 373.979370,65.930679 
z"/>
    <path fill="#ffffff" opacity="1.000000" stroke="none"
          d="
M131.000000,103.930321 
	C167.164948,103.931198 202.830276,103.844452 238.494507,104.003342 
	C246.066528,104.037071 253.533249,105.253685 258.204315,112.432854 
	C262.429596,118.926834 262.947784,125.896721 259.687164,132.793030 
	C256.181885,140.206833 250.107727,143.788315 241.697632,143.760056 
	C209.032928,143.650299 176.367630,143.721176 143.702545,143.722458 
	C129.869888,143.722992 116.036034,143.607193 102.205002,143.756210 
	C93.804863,143.846710 87.787453,140.166306 84.190773,132.802963 
	C80.683395,125.622444 81.606339,118.524261 86.038193,111.978912 
	C90.322029,105.652184 97.078598,104.260773 104.004036,104.014954 
	C112.825912,103.701813 121.667122,103.933502 131.000000,103.930321 
z"/>
    <path fill="#ffffff" opacity="1.000000" stroke="none"
          d="
M94.754570,222.742218 
	C79.683060,215.963226 79.932854,200.821396 86.234169,191.654572 
	C90.919174,184.839066 98.477196,184.136200 105.841080,183.978607 
	C117.661186,183.725647 129.490631,183.907501 141.316116,183.907318 
	C172.795242,183.906845 204.276245,183.731522 235.751816,184.066116 
	C241.552185,184.127792 247.794479,185.253693 253.008621,187.668213 
	C260.526062,191.149277 263.143616,200.768127 260.841034,210.873795 
	C259.492950,216.790253 252.635986,222.351135 245.415512,223.167526 
	C241.621231,223.596527 237.791763,223.928986 233.977661,223.934357 
	C195.003571,223.989258 156.029221,224.024368 117.055351,223.917755 
	C109.749252,223.897766 102.444939,223.225891 94.754570,222.742218 
z"/>
    <path fill="#ffffff" opacity="1.000000" stroke="none"
          d="
M95.544235,265.164673 
	C118.554535,264.800415 141.170822,264.537170 163.787460,264.307068 
	C164.600693,264.298798 165.414886,264.630524 166.232681,264.781952 
	C175.561890,266.509308 181.618835,273.730255 181.755508,283.293823 
	C181.901993,293.543610 176.381683,300.924316 166.889832,302.799927 
	C163.493988,303.470947 159.990082,303.882263 156.532272,303.904175 
	C139.383591,304.012848 122.232765,304.061584 105.084938,303.897583 
	C97.980621,303.829681 91.036354,302.604950 86.319221,296.455353 
	C79.292427,287.294769 80.006424,270.962128 95.544235,265.164673 
z"/>
</svg>